<svg width="50" height="50" viewBox="0 0 50 50" fill="none" xmlns="http://www.w3.org/2000/svg">
<path d="M12.9625 9.58544C13.8846 8.96956 14.8567 8.43225 15.8688 7.97919C18.7271 6.69794 20.1563 6.05836 22.0563 7.29169C23.9583 8.52086 23.9583 10.5417 23.9583 14.5834V17.7084C23.9583 21.6375 23.9584 23.6 25.1792 24.8209C26.4 26.0417 28.3625 26.0417 32.2917 26.0417H35.4167C39.4583 26.0417 41.4792 26.0417 42.7083 27.9417C43.9417 29.8438 43.3021 31.2729 42.0208 34.1292C40.1889 38.2202 37.0225 41.5682 33.0399 43.6251C29.0572 45.6821 24.4943 46.3262 20.0979 45.4521C16.2589 44.6884 12.7325 42.8035 9.96467 40.0357C7.19685 37.2679 5.31189 33.7416 4.54814 29.9025C3.78439 26.0635 4.17615 22.0842 5.67389 18.4678C7.17163 14.8514 9.70808 11.7603 12.9625 9.58544Z" fill="#18B269"/>
<path d="M44.6792 14.7271C43.8379 12.5994 42.5691 10.6668 40.9512 9.04887C39.3333 7.43098 37.4007 6.16216 35.2729 5.32088C32.0604 4.0563 29.1667 6.96671 29.1667 10.4167V18.75C29.1667 19.3026 29.3862 19.8325 29.7769 20.2232C30.1676 20.6139 30.6975 20.8334 31.25 20.8334H39.5834C43.0354 20.8334 45.9438 17.9375 44.6792 14.7271Z" fill="#18B269"/>
</svg>
