<svg width="50" height="50" viewBox="0 0 50 50" fill="none" xmlns="http://www.w3.org/2000/svg">
<path fill-rule="evenodd" clip-rule="evenodd" d="M7.21666 7.21675C4.16666 10.2709 4.16666 15.1792 4.16666 25.0001C4.16666 34.8209 4.16666 39.7313 7.21666 42.7813C10.2708 45.8334 15.1792 45.8334 25 45.8334C34.8208 45.8334 39.7312 45.8334 42.7812 42.7813C45.8333 39.7334 45.8333 34.8209 45.8333 25.0001C45.8333 15.1792 45.8333 10.2688 42.7812 7.21675C39.7333 4.16675 34.8208 4.16675 25 4.16675C15.1792 4.16675 10.2687 4.16675 7.21666 7.21675ZM21.9667 15.6605C22.1081 15.5118 22.2189 15.3367 22.2926 15.1452C22.3664 14.9537 22.4018 14.7495 22.3966 14.5444C22.3915 14.3392 22.346 14.1371 22.2628 13.9495C22.1795 13.7619 22.0601 13.5926 21.9114 13.4511C21.7628 13.3097 21.5877 13.1989 21.3962 13.1251C21.2046 13.0514 21.0005 13.016 20.7953 13.0212C20.5902 13.0263 20.388 13.0718 20.2004 13.155C20.0129 13.2383 19.8435 13.3576 19.7021 13.5063L14.8812 18.5688L13.6312 17.2563C13.4913 17.1017 13.3219 16.9767 13.1329 16.8885C12.9439 16.8004 12.7392 16.751 12.5308 16.7433C12.3224 16.7355 12.1146 16.7696 11.9195 16.8434C11.7245 16.9172 11.5462 17.0293 11.3952 17.1731C11.2442 17.3169 11.1235 17.4894 11.0402 17.6806C10.9569 17.8718 10.9127 18.0777 10.9103 18.2862C10.9078 18.4947 10.9471 18.7016 11.0258 18.8947C11.1046 19.0878 11.2212 19.2632 11.3687 19.4105L13.75 21.9105C13.8959 22.0637 14.0714 22.1856 14.2659 22.2689C14.4603 22.3522 14.6697 22.3952 14.8812 22.3952C15.0928 22.3952 15.3021 22.3522 15.4966 22.2689C15.6911 22.1856 15.8666 22.0637 16.0125 21.9105L21.9667 15.6605ZM27.0833 17.1876C26.6689 17.1876 26.2715 17.3522 25.9785 17.6452C25.6854 17.9383 25.5208 18.3357 25.5208 18.7501C25.5208 19.1645 25.6854 19.5619 25.9785 19.8549C26.2715 20.148 26.6689 20.3126 27.0833 20.3126H37.5C37.9144 20.3126 38.3118 20.148 38.6048 19.8549C38.8979 19.5619 39.0625 19.1645 39.0625 18.7501C39.0625 18.3357 38.8979 17.9383 38.6048 17.6452C38.3118 17.3522 37.9144 17.1876 37.5 17.1876H27.0833ZM21.9646 30.2438C22.1122 30.0965 22.2287 29.9211 22.3075 29.728C22.3862 29.535 22.4255 29.3281 22.423 29.1195C22.4206 28.911 22.3764 28.7051 22.2931 28.514C22.2098 28.3228 22.0891 28.1502 21.9381 28.0064C21.7871 27.8626 21.6088 27.7505 21.4138 27.6767C21.2187 27.6029 21.0109 27.5689 20.8025 27.5766C20.5941 27.5844 20.3894 27.6338 20.2004 27.7219C20.0114 27.81 19.842 27.935 19.7021 28.0897L14.8812 33.1522L13.6312 31.8397C13.4913 31.685 13.3219 31.56 13.1329 31.4719C12.9439 31.3838 12.7392 31.3344 12.5308 31.3266C12.3224 31.3189 12.1146 31.3529 11.9195 31.4267C11.7245 31.5005 11.5462 31.6126 11.3952 31.7564C11.2442 31.9002 11.1235 32.0728 11.0402 32.264C10.9569 32.4551 10.9127 32.661 10.9103 32.8695C10.9078 33.0781 10.9471 33.285 11.0258 33.478C11.1046 33.6711 11.2212 33.8465 11.3687 33.9938L13.75 36.4938C13.8959 36.647 14.0714 36.7689 14.2659 36.8522C14.4603 36.9356 14.6697 36.9785 14.8812 36.9785C15.0928 36.9785 15.3021 36.9356 15.4966 36.8522C15.6911 36.7689 15.8666 36.647 16.0125 36.4938L21.9646 30.2438ZM27.0833 31.7709C26.6689 31.7709 26.2715 31.9355 25.9785 32.2286C25.6854 32.5216 25.5208 32.919 25.5208 33.3334C25.5208 33.7478 25.6854 34.1452 25.9785 34.4383C26.2715 34.7313 26.6689 34.8959 27.0833 34.8959H37.5C37.9144 34.8959 38.3118 34.7313 38.6048 34.4383C38.8979 34.1452 39.0625 33.7478 39.0625 33.3334C39.0625 32.919 38.8979 32.5216 38.6048 32.2286C38.3118 31.9355 37.9144 31.7709 37.5 31.7709H27.0833Z" fill="#18B269"/>
</svg>
