<svg width="50" height="50" viewBox="0 0 50 50" fill="none" xmlns="http://www.w3.org/2000/svg">
<path d="M40.3167 15.8689L32.0667 8.44595C29.7187 6.33136 28.5458 5.27303 27.1021 4.72095L27.0833 10.4168C27.0833 15.3272 27.0833 17.7834 28.6083 19.3084C30.1333 20.8334 32.5896 20.8334 37.5 20.8334H44.9583C44.2042 19.3668 42.85 18.1501 40.3167 15.8689Z" fill="#18B269"/>
<path fill-rule="evenodd" clip-rule="evenodd" d="M29.1667 45.8334H20.8333C12.9771 45.8334 9.04791 45.8334 6.60833 43.3918C4.16875 40.9501 4.16666 37.023 4.16666 29.1667V20.8334C4.16666 12.9772 4.16666 9.048 6.60833 6.60841C9.05 4.16883 12.9979 4.16675 20.8958 4.16675C22.1583 4.16675 23.1687 4.16675 24.0208 4.20216C23.9931 4.36883 23.9792 4.53828 23.9792 4.7105L23.9583 10.6147C23.9583 12.9001 23.9583 14.9209 24.1771 16.548C24.4146 18.3126 24.9583 20.0772 26.4 21.5188C27.8375 22.9563 29.6042 23.5022 31.3687 23.7397C32.9958 23.9584 35.0167 23.9584 37.3021 23.9584H45.7438C45.8333 25.0709 45.8333 26.4376 45.8333 28.2563V29.1667C45.8333 37.023 45.8333 40.9522 43.3917 43.3918C40.95 45.8313 37.0229 45.8334 29.1667 45.8334ZM21.8708 30.0834C22.1803 30.3585 22.3679 30.7451 22.3925 31.1583C22.4171 31.5716 22.2767 31.9778 22.0021 32.2876L16.4458 38.5376C16.2992 38.7025 16.1194 38.8344 15.9181 38.9248C15.7169 39.0152 15.4987 39.0619 15.2781 39.0619C15.0575 39.0619 14.8394 39.0152 14.6381 38.9248C14.4369 38.8344 14.257 38.7025 14.1104 38.5376L11.3312 35.4126C11.0561 35.1026 10.9153 34.696 10.9399 34.2823C10.9646 33.8685 11.1525 33.4815 11.4625 33.2063C11.7725 32.9312 12.1791 32.7904 12.5928 32.815C13.0066 32.8396 13.3936 33.0276 13.6687 33.3376L15.2771 35.1501L19.6646 30.2126C19.8008 30.0588 19.9661 29.9333 20.1509 29.8435C20.3357 29.7536 20.5364 29.701 20.7415 29.6889C20.9467 29.6767 21.1522 29.7051 21.3463 29.7724C21.5405 29.8398 21.7194 29.9447 21.8729 30.0813" fill="#18B269"/>
</svg>
