<svg width="50" height="50" viewBox="0 0 50 50" fill="none" xmlns="http://www.w3.org/2000/svg">
<path d="M21.2208 4.45615C21.5744 4.6722 21.8278 5.01987 21.925 5.42268C22.0223 5.82549 21.9556 6.25045 21.7396 6.60407C21.5804 6.86366 21.5133 7.16935 21.5492 7.47176C21.5851 7.77417 21.7219 8.05565 21.9375 8.27074L22.1417 8.47282C23.3667 9.6999 23.8187 11.502 23.3187 13.1603C23.1948 13.5519 22.9217 13.879 22.5585 14.0707C22.1953 14.2625 21.7712 14.3035 21.3779 14.1849C20.9847 14.0664 20.654 13.7977 20.4573 13.4371C20.2606 13.0766 20.2139 12.653 20.3271 12.2582C20.4095 11.9844 20.4162 11.6934 20.3465 11.4161C20.2768 11.1388 20.1333 10.8856 19.9312 10.6832L19.7292 10.4791C19.0182 9.76816 18.5671 8.83872 18.4484 7.84033C18.3298 6.84193 18.5505 5.83265 19.075 4.9749C19.1818 4.79964 19.3221 4.64713 19.4878 4.5261C19.6536 4.40507 19.8416 4.31788 20.041 4.26951C20.2405 4.22114 20.4476 4.21255 20.6503 4.24421C20.8531 4.27588 21.0477 4.34719 21.2229 4.45407M36.8542 9.83532C37.2602 9.91722 37.6171 10.157 37.8464 10.502C38.0757 10.8469 38.1587 11.2688 38.0771 11.6749L37.7771 13.1749C37.3646 15.2374 35.8771 16.9249 33.8812 17.5895C32.9479 17.902 32.2521 18.6874 32.0604 19.652L31.7604 21.152C31.7202 21.3532 31.6407 21.5445 31.5266 21.7151C31.4124 21.8856 31.2658 22.0319 31.0951 22.1458C30.9243 22.2596 30.7329 22.3387 30.5316 22.3786C30.3303 22.4184 30.1231 22.4182 29.9219 22.378C29.7206 22.3378 29.5293 22.2584 29.3588 22.1442C29.1883 22.03 29.0419 21.8834 28.9281 21.7127C28.8142 21.542 28.7351 21.3505 28.6953 21.1492C28.6554 20.9479 28.6556 20.7407 28.6958 20.5395L28.9958 19.0395C29.4083 16.9749 30.8958 15.2895 32.8917 14.6228C33.825 14.3145 34.5208 13.527 34.7146 12.5603L35.0125 11.0603C35.0528 10.8591 35.1324 10.6677 35.2467 10.4973C35.3609 10.3268 35.5077 10.1805 35.6785 10.0667C35.8493 9.95297 36.0409 9.87398 36.2423 9.83427C36.4436 9.79457 36.6508 9.79492 36.8521 9.83532M44.6021 28.2499C44.2331 28.0876 43.8253 28.0348 43.4272 28.0975C43.0291 28.1603 42.6573 28.3361 42.3562 28.6041C41.5343 29.3337 40.5033 29.7858 39.4098 29.8961C38.3162 30.0064 37.2157 29.7694 36.2646 29.2187L35.8208 28.9645C35.643 28.8619 35.4871 28.7253 35.3621 28.5624C35.237 28.3996 35.1453 28.2137 35.0921 28.0154C35.0389 27.8171 35.0253 27.6103 35.052 27.4068C35.0787 27.2032 35.1453 27.0069 35.2479 26.8291C35.3505 26.6512 35.4871 26.4954 35.65 26.3703C35.8128 26.2453 35.9987 26.1536 36.197 26.1003C36.3953 26.0471 36.6021 26.0335 36.8056 26.0603C37.0092 26.087 37.2055 26.1536 37.3833 26.2562L37.8271 26.5124C38.6146 26.9666 39.6021 26.8666 40.2833 26.2645C41.0306 25.6013 41.9522 25.166 42.9391 25.0102C43.926 24.8544 44.9369 24.9845 45.8521 25.3853L46.4604 25.6499C46.8403 25.8159 47.1386 26.1261 47.2898 26.5121C47.441 26.8981 47.4327 27.3284 47.2667 27.7082C47.1006 28.0881 46.7905 28.3865 46.4045 28.5377C46.0185 28.6889 45.5882 28.6805 45.2083 28.5145L44.6021 28.2499ZM14.4333 8.20824C14.5373 8.10455 14.6607 8.02235 14.7964 7.96634C14.9321 7.91033 15.0775 7.8816 15.2244 7.88179C15.3712 7.88198 15.5166 7.9111 15.6522 7.96746C15.7877 8.02383 15.9109 8.10636 16.0146 8.21032C16.1183 8.31428 16.2005 8.43765 16.2565 8.57338C16.3125 8.70911 16.3412 8.85454 16.341 9.00138C16.3408 9.14821 16.3117 9.29356 16.2553 9.42915C16.199 9.56473 16.1165 9.68788 16.0125 9.79157C15.8025 10.001 15.518 10.1184 15.2214 10.118C14.9249 10.1176 14.6407 9.99945 14.4312 9.78949C14.2218 9.57952 14.1044 9.29497 14.1048 8.99843C14.1052 8.70189 14.2234 8.41765 14.4333 8.20824ZM26.9083 14.9103C26.8045 14.8065 26.6812 14.7241 26.5456 14.6679C26.4099 14.6118 26.2645 14.5828 26.1177 14.5828C25.9709 14.5828 25.8255 14.6118 25.6898 14.6679C25.5542 14.7241 25.4309 14.8065 25.3271 14.9103C25.2232 15.0141 25.1409 15.1374 25.0847 15.2731C25.0285 15.4087 24.9996 15.5541 24.9996 15.7009C24.9996 15.8478 25.0285 15.9932 25.0847 16.1288C25.1409 16.2645 25.2232 16.3877 25.3271 16.4916C25.431 16.5954 25.5544 16.6777 25.6902 16.7339C25.826 16.79 25.9715 16.8188 26.1184 16.8188C26.2654 16.8187 26.4108 16.7896 26.5465 16.7333C26.6823 16.677 26.8055 16.5945 26.9094 16.4905C27.0132 16.3866 27.0955 16.2632 27.1517 16.1274C27.2078 15.9916 27.2366 15.8461 27.2365 15.6992C27.2365 15.5522 27.2074 15.4068 27.1511 15.2711C27.0948 15.1353 27.0123 15.0141 26.9083 14.9103ZM35.7437 21.1603C35.8474 21.0565 35.9706 20.9741 36.1061 20.9179C36.2416 20.8616 36.3869 20.8326 36.5336 20.8325C36.6804 20.8324 36.8257 20.8612 36.9613 20.9173C37.0969 20.9734 37.2201 21.0556 37.324 21.1593C37.4278 21.263 37.5102 21.3861 37.5664 21.5216C37.6227 21.6571 37.6516 21.8024 37.6517 21.9492C37.6518 22.0959 37.623 22.2412 37.567 22.3768C37.5109 22.5124 37.4287 22.6357 37.325 22.7395C37.1156 22.9492 36.8314 23.0671 36.5351 23.0673C36.2388 23.0675 35.9545 22.9499 35.7448 22.7405C35.5351 22.5311 35.4172 22.247 35.417 21.9506C35.4168 21.6543 35.5343 21.37 35.7437 21.1603ZM41.2854 31.902C41.0757 31.6923 40.7913 31.5745 40.4948 31.5745C40.1982 31.5745 39.9138 31.6923 39.7042 31.902C39.4945 32.1117 39.3767 32.3961 39.3767 32.6926C39.3767 32.9892 39.4945 33.2735 39.7042 33.4832C39.808 33.5871 39.9312 33.6694 40.0669 33.7256C40.2026 33.7818 40.3479 33.8107 40.4948 33.8107C40.6416 33.8107 40.787 33.7818 40.9227 33.7256C41.0583 33.6694 41.1816 33.5871 41.2854 33.4832C41.3892 33.3794 41.4716 33.2561 41.5278 33.1205C41.584 32.9848 41.6129 32.8394 41.6129 32.6926C41.6129 32.5458 41.584 32.4004 41.5278 32.2647C41.4716 32.1291 41.3892 32.0058 41.2854 31.902ZM15.5667 42.1686C10.8542 43.7228 8.37082 44.3728 6.99791 42.9999C5.47707 41.4791 6.43749 38.5978 8.35832 32.8374L11.8792 22.277C13.1958 18.327 13.9687 16.0062 15.2583 15.0645L15.2479 15.1187C15.1448 15.6242 15.049 16.1312 14.9604 16.6395C14.7192 17.9817 14.5039 19.3285 14.3146 20.6791C13.8646 23.8728 13.45 27.9541 13.6646 31.2145C13.7937 33.1874 14.2042 35.6353 14.5708 37.5478C14.7718 38.5948 14.9885 39.6386 15.2208 40.6791L15.2625 40.8728L15.5667 42.1686ZM27.1646 38.3041L27.7208 38.1187C32.5083 36.5228 34.9021 35.7249 35.3458 33.8374C35.7937 31.9499 34.0083 30.1645 30.4396 26.5957L26.9208 23.077L26.9104 23.1082L26.7396 23.6645C26.5979 24.1437 26.4062 24.8103 26.2167 25.5728C25.8271 27.1332 25.4729 28.952 25.4729 30.3228C25.4729 31.6937 25.8271 33.5124 26.2167 35.0728C26.4368 35.9504 26.6842 36.821 26.9583 37.6832L26.9687 37.7187L26.9729 37.727L27.1646 38.3041ZM18.3333 15.6332L18.4375 15.1228C19.7146 15.8728 21.2271 17.3832 23.4 19.5582L24.4479 20.6041L24.0062 21.9374L23.9854 21.9957L23.9333 22.1624L23.7458 22.7687C23.5937 23.2812 23.3896 23.9978 23.1833 24.8166C22.7833 26.4187 22.3479 28.5478 22.3479 30.3228C22.3479 32.0978 22.7854 34.227 23.1833 35.8291C23.4205 36.7777 23.688 37.7184 23.9854 38.6499L24.2 39.2937L18.5437 41.1791L18.3208 40.2207L18.3104 40.1749L18.2687 39.9937L18.1167 39.3062C17.9917 38.7187 17.8187 37.8978 17.6375 36.9603C17.2771 35.0707 16.8979 32.7812 16.7833 31.0103C16.5896 28.0853 16.9646 24.2687 17.4083 21.1145C17.6627 19.3138 17.9642 17.5202 18.3125 15.7353L18.3271 15.6582L18.3312 15.6374L18.3333 15.6332ZM31.1542 4.60407C31.4687 4.5624 32.0458 4.54157 32.5021 4.9999C32.9583 5.45824 32.9396 6.03324 32.8979 6.3499C32.8393 6.6871 32.76 7.02037 32.6604 7.34782L32.5854 7.61032L32.7208 7.82282C32.9021 8.1124 33.0979 8.42282 33.2187 8.69782C33.3542 9.01032 33.5083 9.53532 33.2187 10.0853C32.9333 10.627 32.4229 10.8062 32.1 10.8791C31.8042 10.9457 31.4354 10.9749 31.0854 11.0041L30.8208 11.0249H30.7979L30.6062 11.2582C30.3771 11.5353 30.1417 11.8228 29.9187 12.0291C29.6812 12.2437 29.2354 12.577 28.6167 12.4937C27.9771 12.4062 27.6437 11.9416 27.4833 11.652C27.3309 11.352 27.2 11.0415 27.0917 10.7228L27.0083 10.4937L26.7792 10.4103C26.4613 10.3026 26.1515 10.1724 25.8521 10.0207C25.5604 9.85824 25.0979 9.52699 25.0104 8.8874C24.9271 8.26657 25.2604 7.82282 25.475 7.58532C25.6792 7.3624 25.9687 7.12699 26.2458 6.89782L26.4792 6.70615V6.68532L26.5 6.41865C26.5271 6.06657 26.5562 5.69782 26.625 5.40407C26.6979 5.07907 26.875 4.57074 27.4167 4.28532C27.9687 3.99365 28.4937 4.1499 28.8042 4.28532C29.0812 4.40407 29.3917 4.5999 29.6792 4.78324L29.8937 4.91657L30.1562 4.84365C30.4979 4.74574 30.8542 4.64365 31.1542 4.60407ZM46.125 21.8582C47.0979 20.8853 47.4583 19.5749 46.925 18.4207C46.5187 17.5457 45.7021 16.977 44.6958 16.7624C44.4833 15.7562 43.9125 14.9395 43.0375 14.5332C41.8833 14.002 40.5729 14.3603 39.6 15.3353C39.0375 15.8978 38.7812 16.6541 38.6625 17.3291C38.5375 18.0166 38.5375 18.7457 38.5771 19.3832C38.6277 20.1654 38.7412 20.9422 38.9167 21.7062C39.0104 22.0812 39.3167 22.4353 39.6917 22.527H39.6958L39.7521 22.5416C39.9707 22.5938 40.1909 22.639 40.4125 22.677C40.8396 22.752 41.4312 22.8416 42.075 22.8812C42.7125 22.9228 43.4417 22.9207 44.1292 22.7978C44.8042 22.6791 45.5604 22.4228 46.125 21.8603" fill="#18B269"/>
</svg>
