<svg width="50" height="50" viewBox="0 0 50 50" fill="none" xmlns="http://www.w3.org/2000/svg">
<path fill-rule="evenodd" clip-rule="evenodd" d="M25 5.72907C22.9625 5.72907 21.2229 7.03115 20.5792 8.85406C20.4362 9.23829 20.1479 9.55092 19.7765 9.72455C19.4051 9.89817 18.9804 9.91888 18.5939 9.78221C18.2074 9.64554 17.89 9.36243 17.7104 8.99394C17.5307 8.62545 17.503 8.2011 17.6333 7.8124C18.172 6.28877 19.1697 4.96962 20.4892 4.03658C21.8087 3.10355 23.385 2.60254 25.001 2.60254C26.6171 2.60254 28.1934 3.10355 29.5128 4.03658C30.8323 4.96962 31.8301 6.28877 32.3687 7.8124C32.4371 8.00596 32.4667 8.2111 32.4559 8.4161C32.445 8.62111 32.3938 8.82196 32.3053 9.00719C32.2168 9.19243 32.0927 9.35841 31.94 9.49568C31.7874 9.63294 31.6092 9.73879 31.4156 9.80719C31.2221 9.87559 31.0169 9.90519 30.8119 9.89431C30.6069 9.88342 30.4061 9.83227 30.2208 9.74376C30.0356 9.65526 29.8696 9.53113 29.7323 9.37848C29.5951 9.22582 29.4892 9.04763 29.4208 8.85406C29.0976 7.93993 28.4989 7.1485 27.7072 6.58883C26.9154 6.02915 25.9696 5.72877 25 5.72907Z" fill="#18B269"/>
<path d="M29.1667 26.0417H20.8333C20.5571 26.0417 20.2921 26.1515 20.0968 26.3468C19.9014 26.5422 19.7917 26.8071 19.7917 27.0834V31.5876C19.7917 31.7956 19.8541 31.9989 19.9706 32.1711C20.0872 32.3434 20.2527 32.4769 20.4458 32.5542L21.9042 33.1376C23.8915 33.9328 26.1085 33.9328 28.0958 33.1376L29.5542 32.5542C29.7473 32.4769 29.9128 32.3434 30.0294 32.1711C30.146 31.9989 30.2083 31.7956 30.2083 31.5876V27.0834C30.2083 26.8071 30.0986 26.5422 29.9032 26.3468C29.7079 26.1515 29.4429 26.0417 29.1667 26.0417Z" fill="#18B269"/>
<path d="M16.6875 32.0209L6.2625 28.8918C6.325 35.3792 6.70416 41.3563 8.99583 43.3918C11.7417 45.8334 16.1625 45.8334 25 45.8334C33.8375 45.8334 38.2583 45.8334 41.0042 43.3918C43.2958 41.3563 43.675 35.3792 43.7375 28.8918L33.3104 32.0188C33.2319 32.7739 32.9487 33.4932 32.4912 34.0991C32.0337 34.7049 31.4194 35.1742 30.7146 35.4563L29.2563 36.0397C26.524 37.1328 23.476 37.1328 20.7437 36.0397L19.2854 35.4563C18.5806 35.1742 17.9663 34.7049 17.5088 34.0991C17.0513 33.4932 16.7681 32.7739 16.6896 32.0188M15.8521 10.4167H34.1479C39.2521 10.4167 41.8042 10.4167 43.5271 11.8188C43.8604 12.0897 44.1618 12.3911 44.4313 12.723C45.8333 14.4459 45.8333 16.998 45.8333 22.1022C45.8333 23.398 45.8333 24.0438 45.5208 24.5501C45.4593 24.6488 45.3896 24.7422 45.3125 24.8292C44.9167 25.2751 44.2979 25.4605 43.0583 25.8334L33.3333 28.7501V27.0834C33.3333 25.9783 32.8943 24.9185 32.1129 24.1371C31.3315 23.3557 30.2717 22.9167 29.1667 22.9167H20.8333C19.7283 22.9167 18.6685 23.3557 17.8871 24.1371C17.1057 24.9185 16.6667 25.9783 16.6667 27.0834V28.7501L6.94166 25.8334C5.70208 25.4605 5.08125 25.2751 4.6875 24.8292C4.61038 24.7422 4.54069 24.6488 4.47916 24.5501C4.16666 24.0438 4.16666 23.398 4.16666 22.1022C4.16666 16.998 4.16666 14.4459 5.56875 12.723C5.83958 12.3897 6.14097 12.0883 6.47291 11.8188C8.19583 10.4167 10.7479 10.4167 15.8521 10.4167Z" fill="#18B269"/>
</svg>
