<svg width="50" height="50" viewBox="0 0 50 50" fill="none" xmlns="http://www.w3.org/2000/svg">
<path fill-rule="evenodd" clip-rule="evenodd" d="M7.21663 42.7834C10.2708 45.8334 15.1791 45.8334 25 45.8334C34.8208 45.8334 39.7312 45.8334 42.7812 42.7813C45.8333 39.7334 45.8333 34.8209 45.8333 25.0001C45.8333 15.1792 45.8333 10.2688 42.7812 7.21675C39.7333 4.16675 34.8208 4.16675 25 4.16675C15.1791 4.16675 10.2687 4.16675 7.21663 7.21675C4.16663 10.2709 4.16663 15.1792 4.16663 25.0001C4.16663 34.8209 4.16663 39.7334 7.21663 42.7834ZM35.2791 17.073L27.9645 36.1688C27.3 37.898 24.875 37.9543 24.3583 36.2522L22.1562 29.0084C22.0727 28.733 21.9225 28.4825 21.719 28.279C21.5155 28.0755 21.2649 27.9253 20.9895 27.8418L13.7458 25.6397C12.0437 25.123 12.1 22.698 13.8291 22.0355L32.925 14.7167C33.2545 14.578 33.6179 14.5406 33.9687 14.6094C34.3196 14.6782 34.6419 14.85 34.8947 15.103C35.1474 15.3559 35.3189 15.6784 35.3874 16.0293C35.4559 16.3802 35.4182 16.7436 35.2791 17.073Z" fill="#18B269"/>
</svg>
