<svg width="270" height="56" viewBox="0 0 270 56" fill="none" xmlns="http://www.w3.org/2000/svg">
<path d="M255.4 5.4H14.9C9.4 5.4 5 9.8 5 15.4V41.4C5 46.9 9.4 51.4 14.9 51.4H255.4C260.8 51.4 265.3 46.9 265.3 41.4V15.4C265.3 9.8 260.9 5.4 255.4 5.4Z" fill="#18B269"/>
<path d="M249.3 10.4H166.3C160.8 10.4 156.3 14.9 156.3 20.4V35.4C156.3 40.9 160.8 45.4 166.3 45.4H249.3C254.8 45.4 259.3 40.9 259.3 35.4V20.4C259.3 14.8 254.8 10.4 249.3 10.4Z" fill="white"/>
<path d="M186.3 39.7H180.5L183.1 29.4H175.1L172.5 39.7H166.7L172.5 16.4H178.3L176.2 24.9H184.2L186.3 16.4H192.1L186.3 39.7ZM191.1 39.7L196.9 16.4H212.6L211.5 20.8H201.6L200.6 24.9H209.7L208.6 29.3H199.5L198 35.2H207.9L206.8 39.6H191.1V39.7ZM226.3 39.7H210.8L216.6 16.4H222.4L217.7 35.2H227.4L226.3 39.7ZM250.9 23.8C250.6 24.9 250.2 25.9 249.6 26.9C249 27.9 248.3 28.7 247.5 29.4C247 29.8 246.5 30.2 245.9 30.5L244.1 31.4C243.5 31.6 242.8 31.8 242.1 32C241.4 32.1 240.6 32.2 239.8 32.2H236.7L234.8 39.8H229L234.8 16.5H243.8C245.1 16.5 246.3 16.6 247.2 16.9C248.1 17.1 248.9 17.5 249.6 18.1C250.3 18.7 250.8 19.5 251 20.4C251.3 21.3 251.3 22.4 250.9 23.8ZM244.9 23.9C245.1 23.2 245 22.7 244.9 22.2C244.8 21.7 244.4 21.4 244 21.2C243.5 21 243 20.8 242.5 20.8C242 20.8 241.3 20.7 240.5 20.7H239.7L238 27.7H240C240.5 27.7 240.9 27.7 241.3 27.6C241.6 27.5 242 27.4 242.4 27.3C242.8 27.1 243.1 27 243.3 26.8C243.8 26.4 244.2 26 244.4 25.6C244.5 25.2 244.7 24.6 244.9 23.9Z" fill="#18B269"/>
<path d="M50.9 40L67.5 11.6H75.3L77.8 40H70.5L70.2 34.2H61.3L58 40H50.9ZM69.9 29.1L69.3 19.8L64.1 29.1H69.9ZM100.1 40H93.4L94 37.6C92.6 38.6 91.4 39.3 90.3 39.8C89.2 40.3 88 40.6 86.7 40.6C84.6 40.6 83.1 39.9 82.2 38.6C81.3 37.3 81.3 35.2 81.9 32.6L85.4 18.7H92.1L89.5 29.3C89.2 30.4 89 31.3 88.9 32C88.8 32.7 88.8 33.3 88.9 33.8C89 34.2 89.2 34.6 89.6 34.8C90 35 90.5 35.1 91.3 35.1C91.8 35.1 92.4 35 93.1 34.8C93.8 34.6 94.5 34.3 95.1 33.9L98.9 18.7H105.6L100.1 40ZM113.3 40.4C110.6 40.4 108.7 39.8 107.8 38.7C106.8 37.6 106.7 35.8 107.3 33.2L109.8 23.2H107.2L108.4 18.6H111L112.5 12.5H119.2L117.7 18.6H124.1L122.9 23.2H116.5L114.6 30.8C114.4 31.6 114.3 32.2 114.1 32.8C114 33.4 114 33.9 114 34.3C114.1 34.7 114.3 35.1 114.7 35.4C115.1 35.7 115.7 35.8 116.6 35.8C117 35.8 117.4 35.7 118.1 35.6C118.7 35.4 119.2 35.3 119.4 35.2H120L118.8 39.9C118 40.1 117.2 40.2 116.4 40.3C115.5 40.4 114.5 40.4 113.3 40.4ZM144.6 29.3C143.7 32.8 142.1 35.6 139.6 37.6C137.2 39.6 134.2 40.6 130.7 40.6C127.2 40.6 124.7 39.6 123.3 37.6C121.9 35.6 121.6 32.8 122.5 29.3C123.4 25.7 125 23 127.5 20.9C129.9 18.9 132.9 17.9 136.4 17.9C139.9 17.9 142.4 18.9 143.8 20.9C145.2 23 145.5 25.8 144.6 29.3ZM137.8 29.4C138.1 28.1 138.3 27.1 138.3 26.2C138.3 25.4 138.2 24.7 137.9 24.2C137.6 23.7 137.3 23.3 136.8 23.1C136.4 22.9 135.8 22.8 135.2 22.8C134.6 22.8 134 22.9 133.5 23.1C133 23.3 132.4 23.6 131.9 24.2C131.4 24.7 130.9 25.4 130.5 26.2C130.1 27.1 129.7 28.1 129.3 29.5C128.9 30.9 128.8 31.9 128.8 32.7C128.8 33.5 128.9 34.2 129.2 34.6C129.4 35.1 129.8 35.5 130.3 35.7C130.8 35.9 131.3 36 132 36C132.5 36 133.1 35.9 133.7 35.7C134.3 35.5 134.8 35.1 135.3 34.7C135.8 34.2 136.3 33.5 136.7 32.7C137.1 31.8 137.4 30.7 137.8 29.4Z" fill="white"/>
<path d="M18 36.9V38.7C18 39.7 17.4 40.3 16.4 40.3H14.5C13.6 40.3 13 39.7 13 38.8V36.8C12.2 36.6 11.9 36 11.9 35.3V27.9C11.9 25.8 13.2 24.4 15 23.5C15.1 23.4 15.3 23.4 15.4 23.2C14.8 23.2 14.2 23.1 13.6 23.1C12.4 23.1 12.3 22.1 12.6 21.2C12.7 20.8 13 20.7 13.4 20.7C14.1 20.7 14.8 20.5 15.5 20.6C15.9 20.6 16.4 20.8 16.9 21C17.2 20.5 17.5 19.9 17.8 19.3C18.2 18.6 18.6 17.8 19.1 17.2C20.1 16 21.5 15.5 23.1 15.5C27.5 15.3 31.9 15.3 36.2 15.5C38.5 15.6 40.1 16.6 41.1 18.7C41.5 19.5 42 20.4 42.5 21.3C43.1 20.6 43.9 20.8 44.7 20.8C45.1 20.8 45.5 20.9 45.9 20.9C46.5 21 46.8 21.3 46.8 21.9C46.8 23 46.6 23.2 45.5 23.3C45 23.3 44.4 23.4 43.8 23.4C44 23.5 44.1 23.6 44.2 23.6C45.8 24.4 46.9 25.5 47.3 27.3C47.4 27.6 47.4 27.9 47.4 28.2V35.7C47.4 36.5 47.1 36.8 46.3 37.1V38.9C46.3 39.9 45.7 40.5 44.7 40.5H42.9C42 40.5 41.3 39.9 41.3 38.9V37.1C33.5 36.9 25.8 36.9 18 36.9ZM17.7 22.8C25.7 22.3 33.7 22.3 41.6 22.8V22.7C40.8 21.3 40.1 19.8 39.3 18.5C38.8 17.6 38 17 36.9 16.9C36.1 16.8 35.3 16.7 34.5 16.7C30.7 16.5 26.9 16.5 23.1 16.8C21.8 16.9 20.7 17.3 20 18.4C19.2 19.7 18.5 21.2 17.7 22.8C17.7 22.7 17.7 22.7 17.7 22.8ZM17.2 30.2V30.4H19.6C20.1 30.4 20.5 30.1 20.5 29.6C20.5 28.6 20 27.7 18.9 27.5C17.5 27.2 16.1 27 14.6 26.7C13.9 26.6 13.5 26.9 13.4 27.6V28.9C13.4 29.6 13.9 30.1 14.6 30.1C15.6 30.2 16.4 30.2 17.2 30.2ZM42.1 30.4V30.2H44.6C45.3 30.2 45.8 29.7 45.8 28.9V27.7C45.8 27 45.3 26.6 44.6 26.7C43.3 26.9 41.9 27.2 40.6 27.4C39.5 27.6 39 28.1 38.9 29.1C38.8 29.8 39.1 30.2 39.9 30.2C40.5 30.4 41.3 30.4 42.1 30.4Z" fill="white"/>
</svg>
